<svg id="Icon_PageLeft" xmlns="http://www.w3.org/2000/svg" width="37.296" height="60" viewBox="0 0 37.296 60">
  <path id="Path_3" data-name="Path 3" d="M-270.331-58.34a.285.285,0,0,0,.23-.116.285.285,0,0,0,.043-.253l-9.047-29.632,9.047-29.632a.286.286,0,0,0-.043-.253.287.287,0,0,0-.23-.116h-10.31a.285.285,0,0,0-.273.2l-9.073,29.715a.286.286,0,0,0-.011.059h0v.015s0,0,0,0,0,0,0,0,0,0,0,0,0,0,0,0v.007h0a.289.289,0,0,0,.012.068l9.073,29.715a.285.285,0,0,0,.273.2Zm17.342,0a.284.284,0,0,0,.229-.116.285.285,0,0,0,.044-.253l-9.048-29.632,9.048-29.632a.286.286,0,0,0-.044-.253.286.286,0,0,0-.229-.116H-263.3a.285.285,0,0,0-.273.2l-9.072,29.71a.28.28,0,0,0-.008.029v.052s0,0,0,0,0,0,0,0,0,0,0,0,0,0,0,0v.023h0a.283.283,0,0,0,.011.051l9.073,29.715a.285.285,0,0,0,.273.2Z" transform="translate(290 118.34)" fill="#fff"/>
</svg>
