<svg id="Icon_PageRight" xmlns="http://www.w3.org/2000/svg" width="37.296" height="60" viewBox="0 0 37.296 60">
  <path id="Path_3" data-name="Path 3" d="M-272.372-58.34a.285.285,0,0,1-.23-.116.285.285,0,0,1-.043-.253L-263.6-88.34l-9.047-29.632a.286.286,0,0,1,.043-.253.287.287,0,0,1,.23-.116h10.31a.285.285,0,0,1,.273.2l9.073,29.715a.286.286,0,0,1,.011.059h0v.015s0,0,0,0,0,0,0,0,0,0,0,0,0,0,0,0v.007h0a.289.289,0,0,1-.012.068l-9.073,29.715a.285.285,0,0,1-.273.2Zm-17.342,0a.284.284,0,0,1-.229-.116.285.285,0,0,1-.044-.253l9.048-29.632-9.048-29.632a.286.286,0,0,1,.044-.253.286.286,0,0,1,.229-.116h10.31a.285.285,0,0,1,.273.2l9.072,29.71a.28.28,0,0,1,.008.029v.052s0,0,0,0,0,0,0,0,0,0,0,0,0,0,0,0v.023h0a.283.283,0,0,1-.011.051l-9.073,29.715a.285.285,0,0,1-.273.2Z" transform="translate(290 118.34)" fill="#fff"/>
</svg>
